<?xml version="1.0" ?><!DOCTYPE svg  PUBLIC '-//W3C//DTD SVG 1.1//EN'  'http://www.w3.org/Graphics/SVG/1.1/DTD/svg11.dtd'><svg enable-background="new 0 0 66 66" id="Layer_1" version="1.1" viewBox="0 0 66 66" xml:space="preserve" xmlns="http://www.w3.org/2000/svg" xmlns:xlink="http://www.w3.org/1999/xlink"><g><path d="M9.2,45.1H5c-1,0-1.8,0.8-1.8,1.8V63c0,1,0.8,1.8,1.8,1.8h4.2c1,0,1.8-0.8,1.8-1.8v-1.1c30.2-0.3,17.3,1.6,30.6-5   c0,0,0.1,0,0.1,0l19.2-11c1.2-0.6,2-1.9,2-3.3c0-0.6-0.1-1.2-0.4-1.7c-0.6-1.2-1.9-2-3.3-2c-1.6,0-2.1,0.7-8.6,4.1   c-1.9-2.6-5.7-4.3-10-4.5c-0.3-6.2,0.6-8.1-0.8-8.1c-0.4,0-0.8,0.3-0.8,0.8v7.3c-5.1,0.2-9,2.4-10.3,6c-4.7,0.2-8.3-0.7-13.5,1.4   l-4.3,1.8v-1C10.9,45.9,10.1,45.1,9.2,45.1z M9.4,63c0,0.1-0.1,0.3-0.3,0.3H5c-0.1,0-0.3-0.1-0.3-0.3V46.8c0-0.1,0.1-0.3,0.3-0.3   h4.2c0.1,0,0.3,0.1,0.3,0.3v2.1v12.3V63z M39.6,40c4.1,0,7.8,1.5,9.6,3.8l-9.8,5.3c0-0.2,0-0.3,0-0.5c0-2.2-1.8-4-4-4h-5.1   C31.6,41.8,35.1,40,39.6,40z M15.8,47.4c5.1-2.1,8.6-1,19.6-1.3c1.4,0,2.5,1.1,2.5,2.5c0,0.5-0.2,1-0.4,1.4   c-12.1,0.3-14-0.7-14,0.8c0,1.4,1.7,0.5,14.3,0.8c0,0,0,0,0,0c0.1,0,0.1,0,0.2,0c0,0,0.1,0,0.1,0c0,0,0,0,0,0l12.5-6.7c0,0,0,0,0,0   l7.4-4c1-0.6,2.4-0.1,3,0.9c0.2,0.3,0.3,0.7,0.3,1c0,0.8-0.4,1.6-1.2,2l-19.2,11c0,0-0.1,0-0.1,0c-7.1,3.9-7.6,4.8-9.3,4.8H10.9   v-11L15.8,47.4z"/><path d="M45.5,11.7c0-3.6-4.9-9.9-5.1-10.1c-0.1-0.2-0.4-0.3-0.6-0.3s-0.4,0.1-0.6,0.3c-0.2,0.3-5.1,6.6-5.1,10.1   c0,3.8,2.6,6.8,5.7,6.8S45.5,15.4,45.5,11.7z M35.6,11.7c0-2.2,2.6-6.3,4.2-8.4c1.6,2.1,4.2,6.2,4.2,8.4c0,2.9-1.9,5.3-4.2,5.3   S35.6,14.6,35.6,11.7z"/><path d="M26.9,17.2c-0.2,0.2-0.2,0.4-0.2,0.6c0,0.3,1,8.2,3.5,10.8c1.4,1.4,3.3,2.3,5.1,2.3c1.9,0,3.5-0.9,4.4-2.4   c2,3.3,6.6,3,9.6,0.1c2.5-2.5,3.5-10.4,3.5-10.8c0-0.2-0.1-0.5-0.2-0.6S52.3,17,52,17c-0.3,0-8.2,1-10.8,3.6   c-0.6,0.6-1.1,1.4-1.5,2.1c-0.4-0.7-0.9-1.5-1.5-2.1C35.7,18,27.8,17,27.5,17C27.3,17,27,17,26.9,17.2z M42.3,21.6   c1.6-1.6,6.3-2.6,8.9-3c-0.8,5.1-2.1,10.7-7.1,10.7C40.3,29.3,39.2,24.7,42.3,21.6z M37.2,21.6c3.1,3.1,2,7.7-1.8,7.7   c-5,0-6.3-5.7-7.1-10.7C30.9,19,35.6,20,37.2,21.6z"/></g></svg>