<?xml version="1.0" encoding="UTF-8"?> <svg xmlns="http://www.w3.org/2000/svg" id="Layer_1" data-name="Layer 1" viewBox="0 0 50 50"><path d="M41.59,16.49a1.94,1.94,0,0,0-1.94-1.94H10.35a1.94,1.94,0,0,0-1.94,1.94v2.94H41.59Zm4.49,15.78c-.07-4.21-2.57-5.1-4.68-5.1-2.93,0-4.62,1.86-4.69,5.1H35.29V42.65H47.5V32.27Zm-7.61,0c.07-3,1.69-3.34,2.93-3.34,2,0,2.87,1,2.92,3.34Zm2.93-6.1h.19V24.23H8.41v9.16a2.06,2.06,0,0,0,2.06,2.06H34.29V31.27h1.49C36.18,28.05,38.22,26.17,41.4,26.17Zm-17.16,6.1H11V30.63H24.24Zm0-3.79H11V26.85H24.24Z"></path></svg> 