<?xml version="1.0" encoding="UTF-8"?> <svg xmlns="http://www.w3.org/2000/svg" id="Layer_1" data-name="Layer 1" viewBox="0 0 50 50"><path d="M20.72,18.24l-4.33,1.29v7.74l7.75,4.63,9.65-3.26V20.89l-8.21-4.08-2.66.78,7.76,4.06-2.61.7ZM24.93,10a14.64,14.64,0,0,1,12.66,7.23l-1.87.64,5.11,4.47,1.32-6.66-2,.68A17.4,17.4,0,0,0,7.88,21.28l2.57.53A14.82,14.82,0,0,1,24.93,10Zm.14,30a14.64,14.64,0,0,1-12.66-7.23l1.87-.63L9.17,27.65,7.85,34.32l2-.69a17.28,17.28,0,0,0,15.22,9,17.45,17.45,0,0,0,17-13.89l-2.57-.53A14.82,14.82,0,0,1,25.07,40Z"></path></svg> 