<?xml version="1.0" encoding="UTF-8"?> <svg xmlns="http://www.w3.org/2000/svg" id="Layer_1" data-name="Layer 1" viewBox="0 0 50 50"><path d="M15.12,13.33H7.6L7,16.58h7.52Zm-2,9.6H4.39l-.58,3.25h8.7ZM7.41,31h4.08l.58-3.25H8Zm6.7-12.85H.87L.29,21.38H13.53Zm4.26,15.41A2.43,2.43,0,1,0,20.8,36,2.43,2.43,0,0,0,18.37,33.54ZM47,23.66l-5-9H37l.54-3h-20L12.9,35H15a3.49,3.49,0,0,1,6.71,0h15a3.48,3.48,0,0,1,6.7,0h3.12l3.14-11.34Zm-11.61,0,1.28-7.12h4.18l3.95,7.12Zm4.75,9.88A2.43,2.43,0,1,0,42.53,36,2.43,2.43,0,0,0,40.1,33.54Z"></path></svg> 